<svg width="100%" height="100%" id="svg" viewBox="0 0 1440 700" xmlns="http://www.w3.org/2000/svg" class="transition duration-300 ease-in-out delay-150"><defs><linearGradient id="gradient" x1="0%" y1="50%" x2="100%" y2="50%"><stop offset="5%" stop-color="#002bdc"></stop><stop offset="95%" stop-color="#32ded4"></stop></linearGradient></defs><path d="M 0,700 C 0,700 0,175 0,175 C 84.70256410256408,171.6179487179487 169.40512820512816,168.23589743589744 255,173 C 340.59487179487184,177.76410256410256 427.08205128205134,190.67435897435897 513,202 C 598.9179487179487,213.32564102564103 684.2666666666665,223.06666666666666 761,207 C 837.7333333333335,190.93333333333334 905.8512820512822,149.05897435897438 976,150 C 1046.1487179487178,150.94102564102562 1118.3282051282051,194.6974358974359 1196,206 C 1273.6717948717949,217.3025641025641 1356.8358974358976,196.15128205128207 1440,175 C 1440,175 1440,700 1440,700 Z" stroke="none" stroke-width="0" fill="url(#gradient)" fill-opacity="0.4" class="transition-all duration-300 ease-in-out delay-150 path-0"></path><defs><linearGradient id="gradient" x1="0%" y1="50%" x2="100%" y2="50%"><stop offset="5%" stop-color="#002bdc"></stop><stop offset="95%" stop-color="#32ded4"></stop></linearGradient></defs><path d="M 0,700 C 0,700 0,350 0,350 C 85.92051282051281,376.74871794871797 171.84102564102562,403.49743589743593 244,405 C 316.1589743589744,406.50256410256407 374.55641025641023,382.75897435897434 446,359 C 517.4435897435898,335.24102564102566 601.9333333333334,311.46666666666664 694,296 C 786.0666666666666,280.53333333333336 885.7102564102563,273.37435897435904 965,288 C 1044.2897435897437,302.62564102564096 1103.2256410256412,339.0358974358974 1179,353 C 1254.7743589743588,366.9641025641026 1347.3871794871793,358.4820512820513 1440,350 C 1440,350 1440,700 1440,700 Z" stroke="none" stroke-width="0" fill="url(#gradient)" fill-opacity="0.53" class="transition-all duration-300 ease-in-out delay-150 path-1"></path><defs><linearGradient id="gradient" x1="0%" y1="50%" x2="100%" y2="50%"><stop offset="5%" stop-color="#002bdc"></stop><stop offset="95%" stop-color="#32ded4"></stop></linearGradient></defs><path d="M 0,700 C 0,700 0,525 0,525 C 60.599999999999994,532.0307692307692 121.19999999999999,539.0615384615385 199,532 C 276.8,524.9384615384615 371.79999999999995,503.78461538461545 456,521 C 540.2,538.2153846153846 613.5999999999999,593.8 703,585 C 792.4000000000001,576.2 897.8000000000002,503.0153846153846 982,474 C 1066.1999999999998,444.9846153846154 1129.2,460.13846153846157 1202,476 C 1274.8,491.86153846153843 1357.4,508.4307692307692 1440,525 C 1440,525 1440,700 1440,700 Z" stroke="none" stroke-width="0" fill="url(#gradient)" fill-opacity="1" class="transition-all duration-300 ease-in-out delay-150 path-2"></path></svg>